Tango & Cash 
http://www.imdb.com/title/tt0098439/


Source  :

Tango.And.Cash.1989.720p.BluRay.x264-SEPTiC

Info :

ID                               : 1
Format                           : AVC
Format/Info                      : Advanced Video Codec
Format profile                   : Baseline@L2.0
Format settings, CABAC           : No
Format settings, ReFrames        : 3 frames
Codec ID                         : avc1
Codec ID/Info                    : Advanced Video Coding
Duration                         : 1h 43mn
Bit rate mode                    : Variable
Bit rate                         : 400 Kbps
Width                            : 480 pixels
Height                           : 208 pixels
Display aspect ratio             : 2.35:1
Frame rate mode                  : Variable
Frame rate                       : 23.976 fps
Minimum frame rate               : 23.810 fps
Maximum frame rate               : 24.390 fps
Color space                      : YUV
Chroma subsampling               : 4:2:0
Bit depth                        : 8 bits
Scan type                        : Progressive
Bits/(Pixel*Frame)               : 0.167
Stream size                      : 297 MiB (75%)
Writing library                  : x264 core 79

ID                               : 2
Format                           : AAC
Format/Info                      : Advanced Audio Codec
Format version                   : Version 4
Format profile                   : LC
Format settings, SBR             : No
Codec ID                         : 40
Duration                         : 1h 43mn
Bit rate mode                    : Variable
Bit rate                         : 128 Kbps
Maximum bit rate                 : 159 Kbps
Channel(s)                       : 2 channels
Channel positions                : Front: L R
Sampling rate                    : 48.0 KHz
Stream size                      : 95.0 MiB (24%)
Language                         : English


Screens : 
http://img267.imageshack.us/img267/4682/vlcsnap00001d.png 
http://img231.imageshack.us/img231/7555/vlcsnap00002zk.png 
http://img441.imageshack.us/img441/7189/vlcsnap00003m.png 
http://img822.imageshack.us/img822/3627/vlcsnap00004t.png 
http://img412.imageshack.us/img412/6268/vlcsnap00005e.png 
http://img824.imageshack.us/img824/6129/vlcsnap00006e.png 
http://img256.imageshack.us/img256/335/vlcsnap00007t.png 
http://img517.imageshack.us/img517/5524/vlcsnap00008u.png





PLEASE LET THE TORRENT SEED AND SHARE IT WITH ALL YOU KNOW!

Let me know what I can do to be your trusted source of Handheld videos. 
http://thepiratebay.org/user/on.off.on/ -OOO